<svg width="26" height="26" viewBox="0 0 26 26" fill="none" xmlns="http://www.w3.org/2000/svg">
<path d="M2.16666 10.0284C2.16666 8.0797 3.74635 6.5 5.69501 6.5V6.5C6.87472 6.5 7.97638 5.91041 8.63077 4.92883L8.66666 4.875C9.34346 3.85979 10.4829 3.25 11.703 3.25H14.297C15.5171 3.25 16.6565 3.85979 17.3333 4.875L17.3692 4.92883C18.0236 5.91041 19.1253 6.5 20.305 6.5V6.5C22.2536 6.5 23.8333 8.0797 23.8333 10.0284V18.75C23.8333 20.9591 22.0425 22.75 19.8333 22.75H6.16665C3.95751 22.75 2.16666 20.9591 2.16666 18.75V10.0284Z" stroke="#F0F4EF" stroke-width="2" stroke-linecap="round" stroke-linejoin="round"/>
<ellipse cx="13" cy="14.0833" rx="4.33333" ry="4.33333" stroke="#F0F4EF" stroke-width="2" stroke-linecap="round" stroke-linejoin="round"/>
</svg>
