<svg width="17" height="16" viewBox="0 0 17 16" fill="none" xmlns="http://www.w3.org/2000/svg">
<path d="M8.40772 1.56262C8.44194 1.48065 8.55806 1.48065 8.59228 1.56262L10.39 5.86898C10.4036 5.90174 10.4337 5.9248 10.4688 5.92956L15.1467 6.56268C15.2334 6.57442 15.2643 6.68395 15.1965 6.73926L11.5602 9.70659C11.5307 9.73069 11.5174 9.76948 11.526 9.80661L12.6901 14.8371C12.7108 14.9265 12.6103 14.9942 12.5352 14.9415L8.55745 12.1497C8.52297 12.1255 8.47703 12.1255 8.44255 12.1497L4.46476 14.9415C4.38969 14.9942 4.28921 14.9265 4.30989 14.8371L5.47391 9.80661C5.48251 9.76948 5.46924 9.73069 5.43971 9.70659L1.80351 6.73926C1.73573 6.68395 1.76663 6.57442 1.85332 6.56268L6.53117 5.92956C6.56634 5.9248 6.59636 5.90174 6.61003 5.86898L8.40772 1.56262Z" fill="#BFCC94" stroke="#BFCC94" stroke-width="2" stroke-miterlimit="3.3292" stroke-linecap="round" stroke-linejoin="round"/>
</svg>
