<svg width="28" height="28" viewBox="0 0 28 28" fill="none" xmlns="http://www.w3.org/2000/svg">
<path d="M13.3079 1.90797C13.5645 1.2932 14.4355 1.2932 14.6921 1.90797L17.6585 9.01399C17.7611 9.25968 17.9862 9.43258 18.25 9.46829L26.0376 10.5223C26.6878 10.6103 26.9195 11.4318 26.4112 11.8466L20.3857 16.7636C20.1642 16.9443 20.0647 17.2352 20.1292 17.5137L22.0564 25.8419C22.2115 26.512 21.4579 27.02 20.8949 26.6248L14.4309 22.088C14.1723 21.9066 13.8277 21.9066 13.5691 22.088L7.10511 26.6249C6.54207 27.02 5.78848 26.5121 5.94355 25.8419L7.87063 17.5137C7.93508 17.2352 7.8356 16.9443 7.61413 16.7636L1.5888 11.8466C1.08048 11.4318 1.31222 10.6103 1.9624 10.5223L9.74997 9.46829C10.0138 9.43258 10.2389 9.25968 10.3415 9.01399L13.3079 1.90797Z" stroke="#BFCC94" stroke-width="2" stroke-miterlimit="3.3292" stroke-linecap="round" stroke-linejoin="round"/>
</svg>
