<svg width="17" height="17" viewBox="0 0 17 17" fill="none" xmlns="http://www.w3.org/2000/svg">
<path d="M8.40772 1.84606C8.44194 1.76409 8.55806 1.76409 8.59228 1.84606L10.39 6.15243C10.4036 6.18519 10.4337 6.20824 10.4688 6.21301L15.1467 6.84613C15.2334 6.85786 15.2643 6.96739 15.1965 7.0227L11.5602 9.99004C11.5307 10.0141 11.5174 10.0529 11.526 10.0901L12.6901 15.1206C12.7108 15.2099 12.6103 15.2777 12.5352 15.225L8.55745 12.4331C8.52297 12.4089 8.47703 12.4089 8.44255 12.4331L4.46476 15.225C4.38969 15.2777 4.28921 15.2099 4.30989 15.1206L5.47391 10.0901C5.48251 10.0529 5.46924 10.0141 5.43971 9.99004L1.80351 7.0227C1.73573 6.96739 1.76663 6.85786 1.85332 6.84613L6.53117 6.21301C6.56634 6.20824 6.59636 6.18519 6.61004 6.15243L8.40772 1.84606Z" stroke="#BFCC94" stroke-width="2" stroke-miterlimit="3.3292" stroke-linecap="round" stroke-linejoin="round"/>
</svg>
